<?xml version="1.0" encoding="UTF-8"?>
<svg version="1.1" xmlns="http://www.w3.org/2000/svg" width="1024" height="1024">
<path d="M0 0 C337.92 0 675.84 0 1024 0 C1024 337.92 1024 675.84 1024 1024 C686.08 1024 348.16 1024 0 1024 C0 686.08 0 348.16 0 0 Z " fill="#000000" transform="translate(0,0)"/>
<path d="M0 0 C0 0.66 0 1.32 0 2 C1.01320313 2.14115234 1.01320313 2.14115234 2.046875 2.28515625 C5.71670837 3.17348893 8.90644708 4.7345078 12.25 6.4375 C12.88679688 6.75009766 13.52359375 7.06269531 14.1796875 7.38476562 C18.87326759 9.74653518 18.87326759 9.74653518 20 12 C21.59930201 12.6953487 23.20195919 13.38354671 24.81640625 14.04296875 C29.37158746 16.03942563 33.66005221 18.57993598 38 21 C39.44127853 21.8010111 40.88269418 22.60177551 42.32421875 23.40234375 C43.08831055 23.82684814 43.85240234 24.25135254 44.63964844 24.6887207 C46.21448753 25.56361321 47.78935737 26.43845036 49.36425781 27.31323242 C50.5123291 27.95095581 50.5123291 27.95095581 51.68359375 28.6015625 C52.42464355 29.0130957 53.16569336 29.42462891 53.92919922 29.84863281 C55.71584881 30.84201167 57.5006766 31.83866587 59.28515625 32.8359375 C64.74320693 35.8605113 70.24503966 38.58433764 76 41 C76 41.66 76 42.32 76 43 C76.82113281 43.24234375 77.64226562 43.4846875 78.48828125 43.734375 C82.62039319 45.22358998 86.33356585 47.16047075 90.1875 49.25 C90.94434082 49.65549072 91.70118164 50.06098145 92.48095703 50.47875977 C96.45624245 52.61228451 100.41830463 54.76970301 104.375 56.9375 C109.51724937 59.75462736 114.69237812 62.50807125 119.875 65.25 C121.10742432 65.90536743 121.10742432 65.90536743 122.36474609 66.57397461 C126.18166302 68.58747864 129.93626861 70.51928816 134 72 C134 72.66 134 73.32 134 74 C134.845625 74.25394531 135.69125 74.50789063 136.5625 74.76953125 C140.2503448 76.08961206 143.58421005 77.79896012 147 79.6875 C153.28368105 83.10946211 159.63818886 86.33180797 166.07421875 89.45703125 C168.6190464 90.79909656 170.73077872 92.25366416 173 94 C175.14733927 94.70514846 175.14733927 94.70514846 177 95 C177 95.66 177 96.32 177 97 C177.85078125 97.2578125 178.7015625 97.515625 179.578125 97.78125 C183.19382812 99.06903467 186.37639269 100.67075515 189.75 102.5 C190.38905273 102.84530762 191.02810547 103.19061523 191.68652344 103.54638672 C199.17356014 107.6065121 206.60692631 111.76522824 214.04638672 115.91162109 C221.95432693 120.31721938 229.93526788 124.58103818 237.9375 128.8125 C238.86280518 129.30548584 239.78811035 129.79847168 240.74145508 130.30639648 C242.05859497 130.99971069 242.05859497 130.99971069 243.40234375 131.70703125 C244.19116943 132.1244458 244.97999512 132.54186035 245.79272461 132.97192383 C247.8642161 133.93675633 249.76901226 134.53535665 252 135 C252 135.66 252 136.32 252 137 C252.7940625 137.22945312 253.588125 137.45890625 254.40625 137.6953125 C259.00413183 139.36454351 263.18856519 141.57789449 267.5 143.875 C268.41563721 144.3589624 269.33127441 144.8429248 270.2746582 145.34155273 C284.57036078 152.92174109 298.74075508 160.72812172 312.86254883 168.62646484 C317.90555964 171.43188621 323.02382991 174.0362374 328.20703125 176.57421875 C332.25500667 178.64066774 336.143449 180.95457627 340.05078125 183.2734375 C342.92041894 184.95341082 345.82176976 186.54981408 348.75 188.125 C361.52460239 195.04920477 361.52460239 195.04920477 363 198 C363.10019112 200.28810009 363.13286874 202.57922273 363.13701439 204.8695116 C363.13966622 205.58788013 363.14231804 206.30624865 363.14505023 207.04638591 C363.15277182 209.47810586 363.15330349 211.90977555 363.15390015 214.34150696 C363.15791288 216.09271076 363.16235078 217.84391363 363.1671797 219.59511536 C363.17917199 224.4266118 363.18479978 229.25809823 363.18936086 234.08960664 C363.19530682 239.29285807 363.20691908 244.49609748 363.21765137 249.69934082 C363.24219707 262.27408948 363.25680498 274.84884213 363.26971143 287.42360738 C363.27342155 290.97302553 363.27739492 294.52244328 363.2814641 298.07186103 C363.30669695 320.0960897 363.32875798 342.12031897 363.34119225 364.14455891 C363.34412212 369.24830948 363.34708376 374.35206003 363.35009766 379.45581055 C363.35084371 380.72437927 363.35158976 381.99294799 363.35235842 383.29995819 C363.36501986 403.86328284 363.39825237 424.42652117 363.43989949 444.98980544 C363.48227269 466.08383497 363.50588187 487.17782025 363.51111281 508.27189225 C363.51453199 520.12272475 363.52634693 531.97342232 363.55921555 543.82421303 C363.58715374 553.9140779 363.59824281 564.00378021 363.58702008 574.09368078 C363.5818176 579.2446968 363.58482308 584.39537205 363.60948563 589.54633904 C363.63185963 594.25850718 363.63133114 598.97008744 363.61228175 603.68226507 C363.60946503 605.39023173 363.61517232 607.09823726 363.63009469 608.80614106 C363.64910144 611.12247184 363.63748247 613.43668469 363.61803246 615.75296497 C363.61938898 617.04103135 363.62074551 618.32909773 363.62214315 619.65619642 C362.83728539 623.87453457 361.23538791 625.28289085 358 628 C357.34 628.66 356.68 629.32 356 630 C354.824375 630.309375 353.64875 630.61875 352.4375 630.9375 C351.303125 631.288125 350.16875 631.63875 349 632 C348.67 632.99 348.34 633.98 348 635 C346.0390625 636.0625 346.0390625 636.0625 343.625 637 C340.3389033 638.24273778 340.3389033 638.24273778 337.6484375 640.40234375 C335.15931202 642.81479001 332.09612544 644.08739925 329 645.5625 C325.54227326 647.23113657 322.20409452 648.86393699 319 651 C318.01 651 317.02 651 316 651 C316 651.99 316 652.98 316 654 C315.38253906 654.29132812 314.76507812 654.58265625 314.12890625 654.8828125 C308.79191557 657.46601347 303.88971844 660.30846902 299.0078125 663.66796875 C296.45294818 665.36292737 293.74160574 666.62919713 291 668 C289.32485437 669.0490811 287.6593086 670.11354516 286 671.1875 C280.99066835 674.42154653 275.8775938 677.41169553 270.68359375 680.3347168 C268.05525849 681.81540054 265.51217976 683.32521349 263 685 C262.01 685 261.02 685 260 685 C260 685.66 260 686.32 260 687 C259.443125 687.23074219 258.88625 687.46148438 258.3125 687.69921875 C249.95127367 691.27251311 242.83884162 696.02824918 235.4921875 701.3515625 C232.75810407 703.16000013 229.93607747 704.54495276 227 706 C224.88262268 707.26989505 222.77875849 708.56253741 220.6875 709.875 C216.38947195 712.5512904 212.05931594 715.11690832 207.61328125 717.5390625 C204.01854004 719.54867866 200.48143439 721.65240814 196.9375 723.75 C191.24798126 727.11608972 185.52585229 730.40941071 179.75 733.625 C173.64638582 737.02646212 167.68135767 740.60431409 161.75 744.296875 C158.54121694 746.28413269 155.28802314 748.14675059 152 750 C144.90749869 754.09307709 137.87425547 758.27665933 130.8671875 762.51342773 C125.49577565 765.74244101 120.04404583 768.81712513 114.54199219 771.81787109 C111.26702254 773.62665158 108.22094714 775.52813845 105.21875 777.765625 C102 780 102 780 99 780 C99 780.66 99 781.32 99 782 C98.01773438 782.52787109 98.01773438 782.52787109 97.015625 783.06640625 C91.0012956 786.3199206 85.06595253 789.68223129 79.171875 793.1484375 C76.96017794 794.43950204 74.74482299 795.71663458 72.515625 796.9765625 C67.03447619 800.07479874 61.60213964 803.20406496 56.3125 806.625 C41.78663793 816 41.78663793 816 38 816 C38 816.66 38 817.32 38 818 C37.47535156 818.24492188 36.95070313 818.48984375 36.41015625 818.7421875 C25.90611392 823.81069378 15.95187793 829.92543105 6.04296875 836.05859375 C5.23150391 836.55987793 4.42003906 837.06116211 3.58398438 837.57763672 C2.0156712 838.54936458 0.45042674 839.5260671 -1.11132812 840.50830078 C-2.17963867 841.17128174 -2.17963867 841.17128174 -3.26953125 841.84765625 C-3.89448486 842.23961182 -4.51943848 842.63156738 -5.16333008 843.03540039 C-9.72558349 845.43144761 -14.97848623 845.93816949 -20 845 C-22.90377457 843.51594387 -25.49361049 841.79266842 -28.171875 839.93359375 C-30.91609889 838.05736333 -33.68555323 836.48522546 -36.625 834.9375 C-40.11604534 833.07527809 -43.42240522 831.10960175 -46.6875 828.875 C-49.3137743 827.07783169 -51.87728851 825.49238668 -54.75 824.125 C-58.21488281 822.46347725 -61.42948524 820.53783162 -64.6875 818.5 C-70.56675862 814.83402872 -76.54013495 811.36287984 -82.5625 807.9375 C-83.47386719 807.41913574 -84.38523437 806.90077148 -85.32421875 806.36669922 C-87.09073983 805.36232589 -88.85733835 804.35808873 -90.62402344 803.35400391 C-97.95992018 799.17347746 -105.22511131 794.8770792 -112.45703125 790.51953125 C-115.18841246 788.8874156 -117.93602083 787.28548857 -120.6875 785.6875 C-125.24956819 783.03309971 -129.7882308 780.34307325 -134.3125 777.625 C-134.94172363 777.24698242 -135.57094727 776.86896484 -136.21923828 776.47949219 C-139.41381269 774.55868836 -142.60611544 772.63416441 -145.796875 770.70703125 C-151.86756141 767.04575902 -157.95584557 763.43075261 -164.125 759.9375 C-169.7359876 756.75373737 -175.22757287 753.41161734 -180.70703125 750.0078125 C-184.7497309 747.5428687 -188.85283313 745.19823347 -192.97167969 742.86376953 C-198.03331397 739.99267445 -203.02367248 737.01570432 -208 734 C-209.56203339 733.06172275 -211.12454728 732.12424506 -212.6875 731.1875 C-215.52356867 729.48673548 -218.3584806 727.78412184 -221.19140625 726.078125 C-236.05472019 717.13257331 -250.95926198 708.25416293 -266.046875 699.69140625 C-269.52238626 697.70080258 -272.94874649 695.63628502 -276.375 693.5625 C-279.559869 691.66674464 -282.7779363 689.83146165 -286 688 C-292.45307324 684.33009603 -298.82284261 680.53640007 -305.16796875 676.68359375 C-311.73338283 672.71722483 -318.37220285 668.88197611 -325.015625 665.04833984 C-330.07376406 662.12623924 -335.10621822 659.1691551 -340.08984375 656.12109375 C-342.02120602 654.98755393 -343.98591596 653.97775444 -346 653 C-346 652.34 -346 651.68 -346 651 C-346.83748779 650.83371094 -346.83748779 650.83371094 -347.69189453 650.6640625 C-350.36963471 649.8936528 -352.50310114 648.74565252 -354.9296875 647.375 C-355.88391602 646.83721924 -356.83814453 646.29943848 -357.82128906 645.74536133 C-358.82901367 645.16939209 -359.83673828 644.59342285 -360.875 644 C-361.90334961 643.41565186 -362.93169922 642.83130371 -363.99121094 642.22924805 C-371.83799947 637.73859379 -379.49020125 633.03340806 -387 628 C-387.99 627.34 -388.98 626.68 -390 626 C-391.17199036 622.48402891 -391.13029221 619.72005753 -391.13701439 616.00744057 C-391.13966622 615.2879182 -391.14231804 614.56839583 -391.14505023 613.82706976 C-391.1527567 611.39744635 -391.15330291 608.96787336 -391.15390015 606.53823853 C-391.15791386 604.78617167 -391.16235193 603.03410575 -391.1671797 601.28204095 C-391.17916081 596.45280387 -391.18479719 591.62357678 -391.18936086 586.79432774 C-391.19531095 581.59177556 -391.20692209 576.38923538 -391.21765137 571.18669128 C-391.24218614 558.61680972 -391.25680263 546.04692419 -391.26971143 533.47702605 C-391.27342211 529.92877795 -391.27739543 526.38053025 -391.2814641 522.83228254 C-391.30669564 500.81262889 -391.32875537 478.79297463 -391.34119225 456.77330971 C-391.34412208 451.67178978 -391.34708373 446.57026988 -391.35009766 441.46875 C-391.35084371 440.20074678 -391.35158976 438.93274356 -391.35235842 437.626316 C-391.36502145 417.06952145 -391.39825696 396.51281322 -391.43989949 375.95605905 C-391.48227238 354.86651791 -391.50588176 333.77702103 -391.51111281 312.68743742 C-391.51453184 300.83997326 -391.52634515 288.99264406 -391.55921555 277.14522171 C-391.58715319 267.05904084 -391.59824301 256.97302259 -391.58702008 246.88680603 C-391.58181763 241.73780827 -391.58482296 236.58915141 -391.60948563 231.44020271 C-391.63185958 226.72992481 -391.63133119 222.02023504 -391.61228175 217.30994765 C-391.60946504 215.60268382 -391.61517226 213.8953811 -391.63009469 212.18818016 C-391.64910149 209.8728109 -391.63748245 207.55956045 -391.61803246 205.24424171 C-391.61938898 203.95671741 -391.62074551 202.66919311 -391.62214315 201.34265292 C-390.69842766 196.37971105 -387.84538646 194.3269045 -383.88671875 191.48046875 C-377.96880026 188.00119518 -371.90313632 184.91578815 -365.74487305 181.89135742 C-362.38748547 180.23270715 -359.13037764 178.56604924 -356 176.5 C-352.21273432 174.00040465 -348.19160832 172.05856416 -344.125 170.0625 C-339.63968629 167.86076754 -335.24749793 165.6420877 -331 163 C-327.06944182 160.5677239 -323.02221124 158.46993902 -318.875 156.4375 C-312.00789617 153.0663763 -305.27665968 149.47812698 -298.5625 145.8125 C-290.05195198 141.16618613 -281.49208313 136.63307838 -272.875 132.1875 C-265.18157635 128.21679548 -257.60383177 124.13134837 -250.12890625 119.765625 C-246.72312796 117.84376259 -243.26062184 116.09473825 -239.75 114.375 C-234.76400136 111.92671815 -229.98712244 109.30883026 -225.28125 106.359375 C-222.58892746 104.75504582 -219.80300197 103.40150098 -217 102 C-214.86806219 100.78290639 -212.74347019 99.55288694 -210.625 98.3125 C-205.78746709 95.51522185 -200.89496749 92.89521998 -195.875 90.4375 C-188.11789638 86.62887637 -180.4908777 82.58177572 -172.875 78.5 C-172.25892883 78.16989929 -171.64285767 77.83979858 -171.00811768 77.49969482 C-163.30210572 73.36537437 -155.6714058 69.13065486 -148.109375 64.73828125 C-143.97991425 62.42972593 -139.75091949 60.35493674 -135.50512695 58.27075195 C-128.77181678 54.94034028 -122.20478097 51.32345965 -115.62475586 47.7019043 C-108.98582503 44.05756955 -102.29272559 40.53486967 -95.5625 37.0625 C-86.53855642 32.40036018 -77.68626702 27.48011676 -68.8671875 22.44262695 C-63.2882279 19.26437789 -57.67742394 16.25501449 -51.89453125 13.4609375 C-47.436257 11.2107424 -43.111118 8.72889098 -38.77954102 6.24511719 C-25.07192431 -1.58382296 -15.36577769 -6.92542093 0 0 Z " fill="#152E48" transform="translate(526,77)"/>
<path d="M0 0 C5.9069082 1.67362399 11.1023778 4.51671679 16.5 7.375 C18.01436646 8.17139893 18.01436646 8.17139893 19.55932617 8.98388672 C34.10687393 16.65977966 48.50795946 24.59807551 62.86303711 32.62670898 C67.90586158 35.43209109 73.0239945 38.036318 78.20703125 40.57421875 C82.25500667 42.64066774 86.143449 44.95457627 90.05078125 47.2734375 C92.92041894 48.95341082 95.82176976 50.54981408 98.75 52.125 C111.52460239 59.04920477 111.52460239 59.04920477 113 62 C113.10019112 64.28810009 113.13286874 66.57922273 113.13701439 68.8695116 C113.13966622 69.58788013 113.14231804 70.30624865 113.14505023 71.04638591 C113.15277182 73.47810586 113.15330349 75.90977555 113.15390015 78.34150696 C113.15791288 80.09271076 113.16235078 81.84391363 113.1671797 83.59511536 C113.17917199 88.4266118 113.18479978 93.25809823 113.18936086 98.08960664 C113.19530682 103.29285807 113.20691908 108.49609748 113.21765137 113.69934082 C113.24219707 126.27408948 113.25680498 138.84884213 113.26971143 151.42360738 C113.27342155 154.97302553 113.27739492 158.52244328 113.2814641 162.07186103 C113.30669695 184.0960897 113.32875798 206.12031897 113.34119225 228.14455891 C113.34412212 233.24830948 113.34708376 238.35206003 113.35009766 243.45581055 C113.35084371 244.72437927 113.35158976 245.99294799 113.35235842 247.29995819 C113.36501986 267.86328284 113.39825237 288.42652117 113.43989949 308.98980544 C113.48227269 330.08383497 113.50588187 351.17782025 113.51111281 372.27189225 C113.51453199 384.12272475 113.52634693 395.97342232 113.55921555 407.82421303 C113.58715374 417.9140779 113.59824281 428.00378021 113.58702008 438.09368078 C113.5818176 443.2446968 113.58482308 448.39537205 113.60948563 453.54633904 C113.63185963 458.25850718 113.63133114 462.97008744 113.61228175 467.68226507 C113.60946503 469.39023173 113.61517232 471.09823726 113.63009469 472.80614106 C113.64910144 475.12247184 113.63748247 477.43668469 113.61803246 479.75296497 C113.61938898 481.04103135 113.62074551 482.32909773 113.62214315 483.65619642 C112.83728539 487.87453457 111.23538791 489.28289085 108 492 C107.34 492.66 106.68 493.32 106 494 C104.2365625 494.4640625 104.2365625 494.4640625 102.4375 494.9375 C101.303125 495.288125 100.16875 495.63875 99 496 C98.67 496.99 98.34 497.98 98 499 C96.0390625 500.0625 96.0390625 500.0625 93.625 501 C90.3389033 502.24273778 90.3389033 502.24273778 87.6484375 504.40234375 C85.15931202 506.81479001 82.09612544 508.08739925 79 509.5625 C75.54227326 511.23113657 72.20409452 512.86393699 69 515 C68.01 515 67.02 515 66 515 C66 515.99 66 516.98 66 518 C65.38253906 518.29132812 64.76507812 518.58265625 64.12890625 518.8828125 C58.79191557 521.46601347 53.88971844 524.30846902 49.0078125 527.66796875 C46.45294818 529.36292737 43.74160574 530.62919713 41 532 C39.32485437 533.0490811 37.6593086 534.11354516 36 535.1875 C30.99066835 538.42154653 25.8775938 541.41169553 20.68359375 544.3347168 C18.05525849 545.81540054 15.51217976 547.32521349 13 549 C12.01 549 11.02 549 10 549 C10 549.66 10 550.32 10 551 C9.443125 551.23074219 8.88625 551.46148438 8.3125 551.69921875 C3.4806341 553.76418847 -0.86007654 556.04307214 -5.17578125 559.046875 C-7 560 -7 560 -11 560 C-11 519.41 -11 478.82 -11 437 C-17.93 441.29 -24.86 445.58 -32 450 C-39.4921875 454.31640625 -39.4921875 454.31640625 -42.80761719 456.18408203 C-48.31736156 459.31818104 -53.71615952 462.63329727 -59.125 465.9375 C-60.33637473 466.67526631 -61.54788533 467.41280958 -62.75952148 468.15014648 C-65.88949653 470.05531192 -69.01833292 471.96233757 -72.14678955 473.86999512 C-77.45022457 477.1037927 -82.75504689 480.33530081 -88.0625 483.5625 C-88.63602203 483.9112619 -89.20954407 484.2600238 -89.80044556 484.61935425 C-100.68864192 491.23655249 -111.64047772 497.74301123 -122.61328125 504.21875 C-127.82713379 507.29842438 -133.0217165 510.40902877 -138.21194458 513.52824402 C-144.6820761 517.41443432 -151.17298359 521.26529152 -157.66555786 525.11383057 C-169.76750317 532.28823563 -181.85366027 539.48785368 -193.90820312 546.74169922 C-197.20786709 548.72658112 -200.51028644 550.70686399 -203.8125 552.6875 C-207.34148138 554.80428056 -210.86998731 556.92180735 -214.39648438 559.04272461 C-221.0253628 563.02839165 -227.66558283 566.99391493 -234.32421875 570.9296875 C-235.01268387 571.33691544 -235.70114899 571.74414337 -236.41047668 572.16371155 C-239.22300707 573.82722651 -242.03561471 575.49059445 -244.8503418 577.15039062 C-246.94706696 578.38719487 -249.04203321 579.62693288 -251.13671875 580.8671875 C-251.76897873 581.23907196 -252.40123871 581.61095642 -253.05265808 581.99411011 C-255.56275883 583.48299912 -257.97054448 584.97719878 -260.28027344 586.76513672 C-262 588 -262 588 -264.37890625 587.890625 C-267.49855983 586.83059368 -270.09459126 585.42271268 -272.9375 583.75 C-273.83976318 583.22273315 -273.83976318 583.22273315 -274.76025391 582.68481445 C-276.84450532 581.46377192 -278.92215746 580.23191332 -281 579 C-282.56093624 578.08158635 -284.12214665 577.16363858 -285.68359375 576.24609375 C-291.46360361 572.84399242 -297.23189602 569.42223632 -303 566 C-304.2931123 565.23320329 -305.58624471 564.46644047 -306.87939453 563.69970703 C-311.06592081 561.2172988 -315.25180767 558.73381407 -319.4375 556.25 C-320.10110535 555.85630219 -320.76471069 555.46260437 -321.44842529 555.05697632 C-332.67756438 548.3940107 -343.87724889 541.68299436 -355.06640625 534.953125 C-363.79440724 529.70417714 -372.54053741 524.48768579 -381.3125 519.3125 C-389.15690013 514.68454729 -396.98305443 510.02875194 -404.78613281 505.33154297 C-409.58397873 502.44585135 -414.3862531 499.56752804 -419.1875 496.6875 C-431.39327759 489.36584775 -431.39327759 489.36584775 -437.10546875 485.9296875 C-458.39348367 473.12875414 -479.78339716 460.49769989 -501.21777344 447.94358826 C-503.15192487 446.81073652 -505.08597612 445.67771389 -507.02001953 444.54467773 C-509.57137519 443.05001164 -512.12318613 441.55612718 -514.67529297 440.06274414 C-515.8759894 439.35955968 -517.07667349 438.65635414 -518.27734375 437.953125 C-519.85890259 437.02741699 -519.85890259 437.02741699 -521.47241211 436.08300781 C-522.28515435 435.58207538 -522.28515435 435.58207538 -523.11431563 435.07102311 C-525.06095336 433.91987792 -525.06095336 433.91987792 -527.48971403 432.92719829 C-534.43196686 429.60816008 -534.43196686 429.60816008 -535.92040277 425.39424539 C-536.26620265 422.02544774 -536.28470718 418.7817009 -536.20254517 415.39578247 C-536.21108941 414.11250403 -536.21963366 412.82922559 -536.22843683 411.50705993 C-536.25077602 407.95078948 -536.21084455 404.39753633 -536.16065621 400.84165049 C-536.11744473 397.0053215 -536.13208695 393.16916076 -536.13967896 389.33265686 C-536.14492105 382.68779335 -536.11356476 376.04391219 -536.05730057 369.39929581 C-535.97600661 359.79249066 -535.94998409 350.18616021 -535.93742065 340.57904838 C-535.91553769 324.99220831 -535.84899825 309.40589177 -535.75439453 293.81933594 C-535.66259515 278.6790631 -535.59181569 263.53893248 -535.54931641 248.3984375 C-535.54668917 247.46508423 -535.54406194 246.53173095 -535.54135509 245.57009424 C-535.52830465 240.88770464 -535.51566759 236.20531403 -535.50323606 231.52292275 C-535.39957926 192.681564 -535.22070432 153.84085701 -535 115 C-518.83 115 -502.66 115 -486 115 C-486 210.37 -486 305.74 -486 404 C-484.35 404.66 -482.7 405.32 -481 406 C-477.34997179 407.83004785 -473.77446723 409.79963484 -470.1875 411.75 C-468.59168091 412.61564575 -468.59168091 412.61564575 -466.96362305 413.4987793 C-458.66590197 418.02864205 -450.49827597 422.75700896 -442.35400391 427.55566406 C-434.49477971 432.16948649 -426.5502975 436.61439284 -418.5625 441 C-417.95151459 441.33549866 -417.34052917 441.67099731 -416.71102905 442.0166626 C-414.25900913 443.36281089 -411.80689924 444.70879495 -409.35453796 446.05432129 C-387.11835326 458.26414093 -365.05576727 470.80055488 -343.04711914 483.41503906 C-336.28675509 487.28243462 -329.49040705 491.08306076 -322.6875 494.875 C-314.29795422 499.55302676 -305.97178881 504.3256651 -297.6875 509.1875 C-294.75081131 510.90263401 -291.81279341 512.61544527 -288.87353516 514.32617188 C-286.94958381 515.44686945 -285.02739364 516.57059573 -283.10693359 517.69726562 C-280.37250579 519.29465575 -277.62604138 520.86893944 -274.875 522.4375 C-274.06377686 522.91662842 -273.25255371 523.39575684 -272.41674805 523.8894043 C-269.05322141 525.78239238 -266.8043223 526.98782867 -262.90234375 527.046875 C-259.21391637 525.71645974 -255.99710857 523.878447 -252.6875 521.8125 C-251.17350701 520.89443863 -249.65777207 519.97924591 -248.140625 519.06640625 C-247.31884766 518.57156738 -246.49707031 518.07672852 -245.65039062 517.56689453 C-240.79988224 514.699304 -235.86385138 511.98449083 -230.9375 509.25 C-222.46271599 504.53319503 -214.05009291 499.72539673 -205.6875 494.8125 C-197.71729191 490.13134874 -189.68932522 485.59168933 -181.56811523 481.1784668 C-175.05231974 477.62069106 -168.64663613 473.89209112 -162.25 470.125 C-154.25019614 465.41742311 -146.18323463 460.88077519 -138 456.5 C-126.87222312 450.53720491 -115.97836079 444.22020135 -105.09912109 437.81787109 C-91.15449445 429.6382831 -77.12055995 421.60775103 -63.0625 413.625 C-62.09111084 413.07126709 -61.11972168 412.51753418 -60.11889648 411.94702148 C-59.22501221 411.44114502 -58.33112793 410.93526855 -57.41015625 410.4140625 C-56.62777588 409.9701416 -55.84539551 409.5262207 -55.03930664 409.06884766 C-53 408 -53 408 -50 407 C-50.33 376.97 -50.66 346.94 -51 316 C-65.78110736 330.8205865 -65.78110736 330.8205865 -80.55664062 345.64672852 C-82.4229768 347.51598775 -84.28950085 349.38505944 -86.15625 351.25390625 C-86.86702698 351.96860329 -86.86702698 351.96860329 -87.59216309 352.69773865 C-92.59937341 357.73114017 -97.63908618 362.62899197 -103.02770996 367.25132751 C-106.93916348 370.71930181 -110.57397159 374.47374431 -114.25 378.1875 C-115.10754883 379.04883545 -115.96509766 379.9101709 -116.84863281 380.79760742 C-119.56820889 383.5293112 -122.284512 386.26423275 -125 389 C-128.58038026 392.60711851 -132.16415181 396.21081802 -135.75 399.8125 C-136.55856445 400.62936279 -137.36712891 401.44622559 -138.20019531 402.2878418 C-142.39321675 406.49874857 -146.66839412 410.52304526 -151.1730957 414.39794922 C-153.89333351 416.78338293 -156.43349594 419.3272077 -158.96875 421.90625 C-159.49335815 422.43464478 -160.01796631 422.96303955 -160.55847168 423.50744629 C-162.20816081 425.16916351 -163.85451394 426.83412137 -165.5 428.5 C-177.60125096 440.7512222 -177.60125096 440.7512222 -183.87695312 446.09960938 C-188.97103375 450.6594442 -193.69668043 455.63715271 -198.5 460.5 C-211.39106481 473.55082425 -211.39106481 473.55082425 -217.42089844 478.61523438 C-218.98879239 479.99017168 -220.35345684 481.45386458 -221.75 483 C-222.4925 483.66 -223.235 484.32 -224 485 C-227.21637121 484.66528255 -228.85602652 483.51175395 -231.08105469 481.24365234 C-231.65555359 480.66569916 -232.23005249 480.08774597 -232.82196045 479.49227905 C-233.73766815 478.54863998 -233.73766815 478.54863998 -234.671875 477.5859375 C-235.63374725 476.61414047 -235.63374725 476.61414047 -236.61505127 475.62271118 C-238.66724895 473.54711305 -240.70906238 471.46166617 -242.75 469.375 C-244.77827424 467.31143882 -246.8087334 465.25010041 -248.84210205 463.19155884 C-250.10549344 461.91146135 -251.36577057 460.6282794 -252.62225342 459.34140015 C-256.31361824 455.58867932 -260.13185433 452.06093637 -264.13397217 448.64089966 C-268.07622814 445.17425979 -271.68429713 441.3539282 -275.35546875 437.60546875 C-278.45603559 434.46590107 -281.59178821 431.44106226 -284.9375 428.5625 C-290.12071209 424.09317357 -294.85209251 419.19613896 -299.64453125 414.31640625 C-303.67562541 410.24109534 -307.79771943 406.37296755 -312.14257812 402.63476562 C-314.89223639 400.21471939 -317.44436029 397.62158051 -320 395 C-323.18055276 391.77589836 -326.34719093 388.60923118 -329.8125 385.6875 C-334.65688733 381.57434095 -339.03637491 376.98763118 -343.50439453 372.47607422 C-347.200049 368.75824027 -350.94366033 365.1997029 -354.95703125 361.82421875 C-358.4470729 358.70787181 -361.69634734 355.34281692 -364.96557617 351.99731445 C-367.70665434 349.13858322 -367.70665434 349.13858322 -371 347 C-370.43949716 343.14498001 -368.75902292 341.39639124 -366.02734375 338.69921875 C-364.80047852 337.48008789 -364.80047852 337.48008789 -363.54882812 336.23632812 C-362.68708984 335.39521484 -361.82535156 334.55410156 -360.9375 333.6875 C-360.10283203 332.85798828 -359.26816406 332.02847656 -358.40820312 331.17382812 C-354.76671996 327.57775707 -351.09719492 324.06956161 -347.22094727 320.72753906 C-342.8099594 316.88932141 -338.68092812 312.80793218 -334.5625 308.66015625 C-333.79695801 307.89319931 -333.03141602 307.12624237 -332.24267578 306.33604431 C-329.82606803 303.91389119 -327.41298274 301.48826388 -325 299.0625 C-323.35049314 297.40797107 -321.70075571 295.75367198 -320.05078125 294.09960938 C-316.03118629 290.06905798 -312.01446831 286.03565728 -308 282 C-304.96299479 283.45046898 -302.90097717 284.8768113 -300.5625 287.3125 C-299.95277344 287.94027344 -299.34304688 288.56804687 -298.71484375 289.21484375 C-298.14894531 289.80394531 -297.58304688 290.39304687 -297 291 C-296.21625 291.78375 -295.4325 292.5675 -294.625 293.375 C-293.00386389 294.99613611 -291.39235144 296.6270416 -289.796875 298.2734375 C-288.59804688 299.49933594 -288.59804688 299.49933594 -287.375 300.75 C-286.61960937 301.52859375 -285.86421875 302.3071875 -285.0859375 303.109375 C-283.05461747 305.20557053 -283.05461747 305.20557053 -280 306 C-278.61962891 307.39941406 -278.61962891 307.39941406 -277.1015625 309.265625 C-272.38269162 314.8251145 -267.22788505 319.92202941 -262.06542969 325.06494141 C-260.36796773 326.75700992 -258.67596048 328.4544026 -256.984375 330.15234375 C-255.89354991 331.24250853 -254.80241491 332.33236332 -253.7109375 333.421875 C-252.96231949 334.17352936 -252.96231949 334.17352936 -252.19857788 334.94036865 C-249.27619989 337.84345681 -246.23945217 340.45970522 -243 343 C-241.30962156 344.64261264 -239.64350396 346.31048815 -238 348 C-236.27332949 349.77326732 -234.5441893 351.54413346 -232.8125 353.3125 C-231.52279297 354.63701172 -231.52279297 354.63701172 -230.20703125 355.98828125 C-228.25136645 358.2245496 -228.25136645 358.2245496 -226 358 C-224.64268149 356.25843021 -224.64268149 356.25843021 -223.3125 353.96875 C-222.52008911 352.67179199 -222.52008911 352.67179199 -221.71166992 351.34863281 C-221.14681885 350.40858398 -220.58196777 349.46853516 -220 348.5 C-218.80885095 346.54671813 -217.61744276 344.59359427 -216.42578125 342.640625 C-215.83877441 341.67318359 -215.25176758 340.70574219 -214.64697266 339.70898438 C-212.51806841 336.20730612 -210.36073661 332.72429148 -208.1875 329.25 C-207.60705933 328.32030396 -207.60705933 328.32030396 -207.01489258 327.37182617 C-202.43866716 320.06598599 -197.76260495 312.82372118 -193.10546875 305.56933594 C-188.73658589 298.7506699 -184.43215672 291.89660656 -180.1875 285 C-175.90658678 278.04449429 -171.54699001 271.15024799 -167.09033203 264.30615234 C-162.15219014 256.71740332 -157.3307383 249.05603546 -152.50732422 241.39404297 C-150.04934377 237.49009799 -147.58768238 233.58848023 -145.125 229.6875 C-144.63523682 228.91164551 -144.14547363 228.13579102 -143.64086914 227.33642578 C-139.18151784 220.27741055 -134.69723605 213.23435869 -130.21142578 206.19213867 C-125.97161095 199.53365712 -121.750555 192.86360014 -117.54125977 186.18579102 C-114.88154097 181.96924956 -112.21131197 177.75974853 -109.52734375 173.55859375 C-103.58113551 164.24954559 -97.69444883 154.91568652 -91.96801758 145.46972656 C-88.5043591 139.77593698 -84.90457547 134.18080642 -81.26269531 128.59985352 C-77.0413181 122.11064045 -72.97115738 115.53226688 -68.90893555 108.94262695 C-63.83036597 100.70863088 -58.67098956 92.52747627 -53.49267578 84.35595703 C-50.95041359 80.34339077 -48.41231778 76.32819416 -45.875 72.3125 C-45.37476318 71.52085449 -44.87452637 70.72920898 -44.35913086 69.91357422 C-41.22557796 64.95096173 -38.10676046 59.97942237 -35 55 C-26.90009216 42.02037578 -18.7071631 29.09950202 -10.5 16.1875 C-9.91250977 15.26243652 -9.32501953 14.33737305 -8.71972656 13.38427734 C-5.86013213 8.889802 -2.97850541 4.41665631 0 0 Z " fill="#47951D" transform="translate(776,213)"/>
<path d="M0 0 C16.17 0 32.34 0 49 0 C49 95.37 49 190.74 49 289 C50.65 289.66 52.3 290.32 54 291 C57.65002821 292.83004785 61.22553277 294.79963484 64.8125 296.75 C66.40831909 297.61564575 66.40831909 297.61564575 68.03637695 298.4987793 C76.33409803 303.02864205 84.50172403 307.75700896 92.64599609 312.55566406 C100.50522029 317.16948649 108.4497025 321.61439284 116.4375 326 C117.04848541 326.33549866 117.65947083 326.67099731 118.28897095 327.0166626 C120.74099087 328.36281089 123.19310076 329.70879495 125.64546204 331.05432129 C147.88164674 343.26414093 169.94423273 355.80055488 191.95288086 368.41503906 C198.71324491 372.28243462 205.50959295 376.08306076 212.3125 379.875 C220.70204578 384.55302676 229.02821119 389.3256651 237.3125 394.1875 C240.24918869 395.90263401 243.18720659 397.61544527 246.12646484 399.32617188 C248.05041619 400.44686945 249.97260636 401.57059573 251.89306641 402.69726562 C254.62749421 404.29465575 257.37395862 405.86893944 260.125 407.4375 C260.93622314 407.91662842 261.74744629 408.39575684 262.58325195 408.8894043 C265.94677859 410.78239238 268.1956777 411.98782867 272.09765625 412.046875 C275.78608363 410.71645974 279.00289143 408.878447 282.3125 406.8125 C283.82649299 405.89443863 285.34222793 404.97924591 286.859375 404.06640625 C287.68115234 403.57156738 288.50292969 403.07672852 289.34960938 402.56689453 C294.20011776 399.699304 299.13614862 396.98449083 304.0625 394.25 C312.53728401 389.53319503 320.94990709 384.72539673 329.3125 379.8125 C337.28270809 375.13134874 345.31067478 370.59168933 353.43188477 366.1784668 C359.94768026 362.62069106 366.35336387 358.89209112 372.75 355.125 C380.74980386 350.41742311 388.81676537 345.88077519 397 341.5 C408.12777688 335.53720491 419.02163921 329.22020135 429.90087891 322.81787109 C443.84550555 314.6382831 457.87944005 306.60775103 471.9375 298.625 C472.90888916 298.07126709 473.88027832 297.51753418 474.88110352 296.94702148 C475.77498779 296.44114502 476.66887207 295.93526855 477.58984375 295.4140625 C478.37222412 294.9701416 479.15460449 294.5262207 479.96069336 294.06884766 C482 293 482 293 485 292 C484.67 261.97 484.34 231.94 484 201 C469.21889264 215.8205865 469.21889264 215.8205865 454.44335938 230.64672852 C452.5770232 232.51598775 450.71049915 234.38505944 448.84375 236.25390625 C448.13297302 236.96860329 448.13297302 236.96860329 447.40783691 237.69773865 C442.40062659 242.73114017 437.36091382 247.62899197 431.97229004 252.25132751 C428.06083652 255.71930181 424.42602841 259.47374431 420.75 263.1875 C419.89245117 264.04883545 419.03490234 264.9101709 418.15136719 265.79760742 C415.43179111 268.5293112 412.715488 271.26423275 410 274 C406.41961974 277.60711851 402.83584819 281.21081802 399.25 284.8125 C398.44143555 285.62936279 397.63287109 286.44622559 396.79980469 287.2878418 C392.60678325 291.49874857 388.33160588 295.52304526 383.8269043 299.39794922 C381.10666649 301.78338293 378.56650406 304.3272077 376.03125 306.90625 C375.50664185 307.43464478 374.98203369 307.96303955 374.44152832 308.50744629 C372.79183919 310.16916351 371.14548606 311.83412137 369.5 313.5 C357.39874904 325.7512222 357.39874904 325.7512222 351.12304688 331.09960938 C346.02896625 335.6594442 341.30331957 340.63715271 336.5 345.5 C323.60893519 358.55082425 323.60893519 358.55082425 317.57910156 363.61523438 C316.01120761 364.99017168 314.64654316 366.45386458 313.25 368 C312.5075 368.66 311.765 369.32 311 370 C307.78362879 369.66528255 306.14397348 368.51175395 303.91894531 366.24365234 C303.34444641 365.66569916 302.76994751 365.08774597 302.17803955 364.49227905 C301.26233185 363.54863998 301.26233185 363.54863998 300.328125 362.5859375 C299.36625275 361.61414047 299.36625275 361.61414047 298.38494873 360.62271118 C296.33275105 358.54711305 294.29093762 356.46166617 292.25 354.375 C290.22172576 352.31143882 288.1912666 350.25010041 286.15789795 348.19155884 C284.89450656 346.91146135 283.63422943 345.6282794 282.37774658 344.34140015 C278.68638176 340.58867932 274.86814567 337.06093637 270.86602783 333.64089966 C266.92377186 330.17425979 263.31570287 326.3539282 259.64453125 322.60546875 C256.54396441 319.46590107 253.40821179 316.44106226 250.0625 313.5625 C244.87928791 309.09317357 240.14790749 304.19613896 235.35546875 299.31640625 C231.32437459 295.24109534 227.20228057 291.37296755 222.85742188 287.63476562 C220.10776361 285.21471939 217.55563971 282.62158051 215 280 C211.81944724 276.77589836 208.65280907 273.60923118 205.1875 270.6875 C200.34311267 266.57434095 195.96362509 261.98763118 191.49560547 257.47607422 C187.799951 253.75824027 184.05633967 250.1997029 180.04296875 246.82421875 C176.5529271 243.70787181 173.30365266 240.34281692 170.03442383 236.99731445 C167.29334566 234.13858322 167.29334566 234.13858322 164 232 C164.56050284 228.14498001 166.24097708 226.39639124 168.97265625 223.69921875 C169.79056641 222.88646484 170.60847656 222.07371094 171.45117188 221.23632812 C172.31291016 220.39521484 173.17464844 219.55410156 174.0625 218.6875 C174.89716797 217.85798828 175.73183594 217.02847656 176.59179688 216.17382812 C181.03005241 211.79092106 185.55652347 207.56841902 190.28295898 203.4987793 C192.44871552 201.60832297 194.48571751 199.61275182 196.5 197.5625 C197.1703125 196.88316406 197.840625 196.20382812 198.53125 195.50390625 C199.0159375 195.00761719 199.500625 194.51132812 200 194 C204.24512336 197.55204199 208.23835657 201.19507896 212.11230469 205.14526367 C213.81892231 206.82208391 215.56890348 208.3627096 217.3984375 209.90234375 C222.97619691 214.75565244 228.13557541 220.02427285 233.34268188 225.26751709 C235.22496176 227.16271893 237.11048618 229.05464053 238.99682617 230.94580078 C243.67828905 235.64053678 248.35425545 240.34073484 253.03039551 245.04077148 C256.99325528 249.0234563 260.95822178 253.0040216 264.92593384 256.98187256 C266.77131359 258.83367034 268.61362294 260.68848449 270.45581055 262.54345703 C275.60627271 267.71605335 280.75585257 272.79467497 286.31604004 277.53198242 C288.99278076 279.86547165 291.43622926 282.40575268 293.890625 284.96875 C294.93951908 286.04484145 295.98901477 287.12034675 297.0390625 288.1953125 C298.66007146 289.85989165 300.27677154 291.5279557 301.88378906 293.20605469 C303.45814342 294.84667772 305.04768578 296.4711938 306.640625 298.09375 C307.11985413 298.60192261 307.59908325 299.11009521 308.09283447 299.63366699 C310.63754659 302.29760253 310.63754659 302.29760253 314.09570312 303.02978516 C316.42477228 301.77029622 317.98556291 300.33577022 319.828125 298.4296875 C320.54613281 297.6975 321.26414062 296.9653125 322.00390625 296.2109375 C323.11572266 295.05464844 323.11572266 295.05464844 324.25 293.875 C332.59449162 285.27854327 332.59449162 285.27854327 336.765625 281.7265625 C342.6672014 276.66203751 348.03878969 271.02889128 353.5 265.5 C365.6300828 253.21958865 365.6300828 253.21958865 371.90820312 247.86914062 C376.82006921 243.48010623 381.37349211 238.68648114 386 234 C397.68406106 222.16447889 397.68406106 222.16447889 404.015625 216.76171875 C408.20284485 213.04432475 412.07223113 208.98728052 416 205 C421.20196234 199.71922004 426.41104701 194.56390899 432.0390625 189.73828125 C435.69413917 186.49822325 439.07891362 182.98340125 442.5 179.5 C447.18327224 174.73142226 451.91966352 170.15024034 456.98632812 165.79101562 C460.65489554 162.52809 464.06112599 159.00151288 467.5 155.5 C472.20336798 150.71096048 476.96017723 146.10665676 482.04882812 141.72851562 C485.35052529 138.80358871 488.41309482 135.64815969 491.5 132.5 C495.87906284 128.07359594 500.26037838 123.76101992 505.03125 119.75390625 C508.70152616 116.48415626 512.07143363 112.89030089 515.484375 109.35546875 C517.69497554 107.28560521 519.3120403 106.2439114 522 105 C522.44421781 133.21566529 522.77907041 161.4308053 522.98443127 189.64926529 C523.08232829 202.75239324 523.21573759 215.8533464 523.43334961 228.95507812 C523.62297551 240.37731823 523.74536083 251.79798344 523.7876814 263.22175384 C523.81241646 269.26932915 523.8703433 275.31240008 524.00887108 281.35852814 C524.1383561 287.05641694 524.1775335 292.74797279 524.14904594 298.44719315 C524.15425203 300.53237809 524.19178327 302.61778549 524.26490402 304.70169449 C524.77506926 319.99802862 524.77506926 319.99802862 520.15047669 325.00074863 C515.59792608 328.68395435 510.61744263 331.3761806 505.34126627 333.87577772 C501.98867359 335.48561571 498.8343572 337.36304834 495.6328125 339.25390625 C494.52067383 339.8792627 493.40853516 340.50461914 492.26269531 341.14892578 C486.72650802 344.28985455 481.30630712 347.61957263 475.875 350.9375 C474.66362527 351.67526631 473.45211467 352.41280958 472.24047852 353.15014648 C469.11050347 355.05531192 465.98166708 356.96233757 462.85321045 358.86999512 C457.54977543 362.1037927 452.24495311 365.33530081 446.9375 368.5625 C446.36397797 368.9112619 445.79045593 369.2600238 445.19955444 369.61935425 C434.31135808 376.23655249 423.35952228 382.74301123 412.38671875 389.21875 C407.17286621 392.29842438 401.9782835 395.40902877 396.78805542 398.52824402 C390.3179239 402.41443432 383.82701641 406.26529152 377.33444214 410.11383057 C365.23249683 417.28823563 353.14633973 424.48785368 341.09179688 431.74169922 C337.79213291 433.72658112 334.48971356 435.70686399 331.1875 437.6875 C327.65851862 439.80428056 324.13001269 441.92180735 320.60351562 444.04272461 C313.9746372 448.02839165 307.33441717 451.99391493 300.67578125 455.9296875 C299.64308357 456.5405294 299.64308357 456.5405294 298.58952332 457.16371155 C295.77699293 458.82722651 292.96438529 460.49059445 290.1496582 462.15039062 C288.05293304 463.38719487 285.95796679 464.62693288 283.86328125 465.8671875 C283.23102127 466.23907196 282.59876129 466.61095642 281.94734192 466.99411011 C279.43724117 468.48299912 277.02945552 469.97719878 274.71972656 471.76513672 C273 473 273 473 270.62109375 472.890625 C267.50144017 471.83059368 264.90540874 470.42271268 262.0625 468.75 C261.16023682 468.22273315 261.16023682 468.22273315 260.23974609 467.68481445 C258.15549468 466.46377192 256.07784254 465.23191332 254 464 C252.43906376 463.08158635 250.87785335 462.16363858 249.31640625 461.24609375 C243.53639639 457.84399242 237.76810398 454.42223632 232 451 C230.7068877 450.23320329 229.41375529 449.46644047 228.12060547 448.69970703 C223.93407919 446.2172988 219.74819233 443.73381407 215.5625 441.25 C214.89889465 440.85630219 214.23528931 440.46260437 213.55157471 440.05697632 C202.32243562 433.3940107 191.12275111 426.68299436 179.93359375 419.953125 C171.20559276 414.70417714 162.45946259 409.48768579 153.6875 404.3125 C145.84309987 399.68454729 138.01694557 395.02875194 130.21386719 390.33154297 C125.41602127 387.44585135 120.6137469 384.56752804 115.8125 381.6875 C103.60672241 374.36584775 103.60672241 374.36584775 97.89453125 370.9296875 C76.60651633 358.12875414 55.21660284 345.49769989 33.78222656 332.94358826 C31.84807513 331.81073652 29.91402388 330.67771389 27.97998047 329.54467773 C25.42862481 328.05001164 22.87681387 326.55612718 20.32470703 325.06274414 C19.1240106 324.35955968 17.92332651 323.65635414 16.72265625 322.953125 C15.14109741 322.02741699 15.14109741 322.02741699 13.52758789 321.08300781 C12.71484565 320.58207538 12.71484565 320.58207538 11.88568437 320.07102311 C9.93904664 318.91987792 9.93904664 318.91987792 7.51028597 317.92719829 C0.56803314 314.60816008 0.56803314 314.60816008 -0.92040277 310.39424539 C-1.26620265 307.02544774 -1.28470718 303.7817009 -1.20254517 300.39578247 C-1.21108941 299.11250403 -1.21963366 297.82922559 -1.22843683 296.50705993 C-1.25077602 292.95078948 -1.21084455 289.39753633 -1.16065621 285.84165049 C-1.11744473 282.0053215 -1.13208695 278.16916076 -1.13967896 274.33265686 C-1.14492105 267.68779335 -1.11356476 261.04391219 -1.05730057 254.39929581 C-0.97600661 244.79249066 -0.94998409 235.18616021 -0.93742065 225.57904838 C-0.91553769 209.99220831 -0.84899825 194.40589177 -0.75439453 178.81933594 C-0.66259515 163.6790631 -0.59181569 148.53893248 -0.54931641 133.3984375 C-0.54668917 132.46508423 -0.54406194 131.53173095 -0.54135509 130.57009424 C-0.52830465 125.88770464 -0.51566759 121.20531403 -0.50323606 116.52292275 C-0.39957926 77.681564 -0.22070432 38.84085701 0 0 Z " fill="#FCFCFC" transform="translate(241,328)"/>
<path d="M0 0 C151.14 0 302.28 0 458 0 C451.26172811 7.8613172 451.26172811 7.8613172 447.94140625 11.12109375 C446.86729492 12.18360352 446.86729492 12.18360352 445.77148438 13.26757812 C444.30276891 14.71032161 442.83401909 16.15303014 441.36523438 17.59570312 C437.28310542 21.63381991 433.40801001 25.76109668 429.66381836 30.11352539 C427.07672954 33.04682478 424.29618715 35.76789916 421.5 38.5 C418.04867473 41.90842744 414.63856398 45.2964945 411.5 49 C410.99365524 49.5604451 410.48731049 50.1208902 409.96562195 50.69831848 C407.86769231 53.07925524 407.86769231 53.07925524 405.77424622 56.18974304 C401.22692029 62.15852138 396.8596885 66.09496791 389.23226929 67.14639282 C382.05410635 67.6741153 374.88717972 67.46552931 367.69921875 67.26953125 C365.34952808 67.25038679 362.99978178 67.23714341 360.65002441 67.2298584 C351.99499706 67.16205488 343.34116125 66.98055558 334.6875 66.8125 C315.320625 66.544375 295.95375 66.27625 276 66 C276 129.69 276 193.38 276 259 C270.47251146 256.78900458 265.41032615 254.08964337 260.1875 251.25 C259.13232178 250.67797852 258.07714355 250.10595703 256.98999023 249.51660156 C248.49726522 244.88226092 240.12198428 240.06329279 231.8112793 235.11035156 C223.33478136 230.08914048 214.74940906 225.63204009 206 221 C206 169.85 206 118.7 206 66 C138.02 66 70.04 66 0 66 C0 44.22 0 22.44 0 0 Z " fill="#FDFDFD" transform="translate(241,229)"/>
<path d="M0 0 C5.9069082 1.67362399 11.1023778 4.51671679 16.5 7.375 C18.01436646 8.17139893 18.01436646 8.17139893 19.55932617 8.98388672 C34.10687393 16.65977966 48.50795946 24.59807551 62.86303711 32.62670898 C67.90076352 35.42925498 73.01348486 38.03130743 78.19140625 40.56640625 C83.25686315 43.15197326 88.11283241 46.09582703 93 49 C95.32790765 50.34317514 97.66322778 51.67228851 100 53 C96.78171625 59.2472567 91.60043363 63.6628498 86.32421875 68.1640625 C81.66043869 72.22743674 77.33482108 76.59120586 73 81 C68.13774466 85.94522898 63.23834306 90.72443192 57.97802734 95.24462891 C54.42827358 98.39480535 51.13512385 101.80128526 47.8125 105.1875 C43.69279499 109.38471592 39.63239256 113.36415575 35 117 C33.307675 118.64060709 31.64510213 120.31204427 30 122 C27.27646599 124.77641817 24.5452353 127.54514181 21.8125 130.3125 C21.08869141 131.05306641 20.36488281 131.79363281 19.61914062 132.55664062 C18.92626953 133.25595703 18.23339844 133.95527344 17.51953125 134.67578125 C16.89151611 135.31427002 16.26350098 135.95275879 15.61645508 136.6105957 C14 138 14 138 12 138 C11.73960937 138.598125 11.47921875 139.19625 11.2109375 139.8125 C9.90933899 142.16377472 8.70180804 143.3175226 6.625 145 C2.35863757 148.59925849 -1.54319783 152.47883112 -5.43505859 156.47265625 C-8.15116528 159.23573528 -10.93863972 161.84583031 -13.875 164.375 C-18.12619575 168.05236514 -22.06572309 171.98888175 -26 176 C-29.86224792 179.93768245 -33.71913692 183.81192861 -37.90625 187.40625 C-42.68700152 191.52404575 -47.07638084 196.00537571 -51.5 200.5 C-56.53941839 205.62030793 -61.60091753 210.59541624 -67.05273438 215.27539062 C-70.52879296 218.35398615 -73.74990366 221.68642521 -77 225 C-80.80042657 228.87465365 -84.58591555 232.69659452 -88.71875 236.21875 C-94.62929224 241.30966626 -100.02180621 246.95391476 -105.5 252.5 C-117.71657832 264.86797882 -117.71657832 264.86797882 -124.00195312 270.22460938 C-128.36783485 274.10397056 -132.40142078 278.34261764 -136.5 282.5 C-141.83398632 287.9105141 -147.16044781 293.21172831 -152.93164062 298.15429688 C-157.31466081 302.06549052 -161.37745325 306.31830624 -165.5 310.5 C-170.88047671 315.9576715 -176.25297073 321.31506439 -182.07470703 326.30175781 C-185.60341625 329.41432455 -188.88231039 332.7786932 -192.1875 336.125 C-192.87263672 336.81464844 -193.55777344 337.50429688 -194.26367188 338.21484375 C-197.07358399 341.04368694 -199.87872698 343.87713593 -202.6796875 346.71484375 C-205.03616114 349.03561324 -207.46247478 351.24399423 -209.9375 353.4375 C-213.75388882 356.848861 -217.42836005 360.33436952 -221 364 C-223 363 -225 362 -227 361 C-225.28885348 355.91748742 -222.38329955 351.66335098 -219.5 347.1875 C-218.40066804 345.46508216 -217.30171474 343.74242258 -216.203125 342.01953125 C-215.65720703 341.16568848 -215.11128906 340.3118457 -214.54882812 339.43212891 C-212.42389509 336.09534093 -210.33631107 332.73600762 -208.25 329.375 C-203.95874009 322.48032267 -199.57520501 315.64609077 -195.1875 308.8125 C-190.11828347 300.91648335 -185.10570555 292.99097097 -180.1875 285 C-175.90658678 278.04449429 -171.54699001 271.15024799 -167.09033203 264.30615234 C-162.15219014 256.71740332 -157.3307383 249.05603546 -152.50732422 241.39404297 C-150.04934377 237.49009799 -147.58768238 233.58848023 -145.125 229.6875 C-144.63523682 228.91164551 -144.14547363 228.13579102 -143.64086914 227.33642578 C-139.18151784 220.27741055 -134.69723605 213.23435869 -130.21142578 206.19213867 C-125.97161095 199.53365712 -121.750555 192.86360014 -117.54125977 186.18579102 C-114.88154097 181.96924956 -112.21131197 177.75974853 -109.52734375 173.55859375 C-103.58113551 164.24954559 -97.69444883 154.91568652 -91.96801758 145.46972656 C-88.5043591 139.77593698 -84.90457547 134.18080642 -81.26269531 128.59985352 C-77.0413181 122.11064045 -72.97115738 115.53226688 -68.90893555 108.94262695 C-63.83036597 100.70863088 -58.67098956 92.52747627 -53.49267578 84.35595703 C-50.95041359 80.34339077 -48.41231778 76.32819416 -45.875 72.3125 C-45.37476318 71.52085449 -44.87452637 70.72920898 -44.35913086 69.91357422 C-41.22557796 64.95096173 -38.10676046 59.97942237 -35 55 C-26.90009216 42.02037578 -18.7071631 29.09950202 -10.5 16.1875 C-9.61876465 14.79990479 -9.61876465 14.79990479 -8.71972656 13.38427734 C-5.86013213 8.889802 -2.97850541 4.41665631 0 0 Z " fill="#FCFDFC" transform="translate(776,213)"/>
<path d="M0 0 C0.66 0.33 1.32 0.66 2 1 C2 3 2 3 0.6015625 4.41015625 C-0.37683594 5.22806641 -0.37683594 5.22806641 -1.375 6.0625 C-2.10332031 6.68382812 -2.83164062 7.30515625 -3.58203125 7.9453125 C-4.77892578 8.96238281 -4.77892578 8.96238281 -6 10 C-13.03228634 16.09029001 -13.03228634 16.09029001 -19.375 22.875 C-22.45289203 26.52123181 -25.81310071 29.76603663 -29.3125 33 C-29.84085449 33.4935498 -30.36920898 33.98709961 -30.91357422 34.49560547 C-34.75538302 38 -34.75538302 38 -37 38 C-37 38.66 -37 39.32 -37 40 C-38.328125 41.3046875 -38.328125 41.3046875 -40.25 42.875 C-46.17833782 47.89702718 -51.55174107 53.47001718 -57 59 C-57.66 58.67 -58.32 58.34 -59 58 C-56.15912732 55.13409251 -53.31473864 52.27172303 -50.46728516 49.41235352 C-49.50248541 48.44257727 -48.53859105 47.4718993 -47.57568359 46.50024414 C-42.51218507 41.39195921 -37.42035712 36.41475367 -31.95703125 31.73657227 C-28.12919901 28.33994418 -24.58643924 24.64764128 -21 21 C-16.04758262 15.96307038 -11.07540353 11.06372982 -5.67773438 6.50170898 C-3.49247918 4.54572751 -1.72191926 2.36763898 0 0 Z M-60 59 C-60 59.99 -60 60.98 -60 62 C-63 64.1875 -63 64.1875 -66 66 C-64.60667426 62.63279613 -63.0210714 61.0140476 -60 59 Z " fill="#8BD033" transform="translate(876,266)"/>
<path d="M0 0 C0.66 0.33 1.32 0.66 2 1 C0.9171875 2.051875 0.9171875 2.051875 -0.1875 3.125 C-2.05185626 4.97894087 -3.65297888 6.81181158 -5.3125 8.875 C-7.93249579 12.09385197 -10.97124474 14.71107289 -14.1328125 17.38671875 C-15.83703768 18.85919783 -17.43024216 20.38636694 -19 22 C-19.66 21.67 -20.32 21.34 -21 21 C-14 14 -7 7 0 0 Z M-24 23 C-23.34 23.33 -22.68 23.66 -22 24 C-22.66644531 24.66386719 -23.33289063 25.32773437 -24.01953125 26.01171875 C-26.26013139 28.25073933 -28.48160276 30.50775543 -30.69921875 32.76953125 C-32.02855569 34.11727642 -33.35798452 35.46493096 -34.6875 36.8125 C-35.70166992 37.85180664 -35.70166992 37.85180664 -36.73632812 38.91210938 C-37.38408203 39.56630859 -38.03183594 40.22050781 -38.69921875 40.89453125 C-39.28533936 41.49112549 -39.87145996 42.08771973 -40.4753418 42.70239258 C-42 44 -42 44 -44 44 C-44 44.66 -44 45.32 -44 46 C-47.55691864 49.82088292 -51.4534272 53.30041552 -55.3125 56.8125 C-55.86228516 57.31458984 -56.41207031 57.81667969 -56.97851562 58.33398438 C-58.31805239 59.55703968 -59.65888992 60.77867008 -61 62 C-61.66 61.67 -62.32 61.34 -63 61 C-60.00428676 57.97489042 -57.00265195 54.95572125 -54 51.9375 C-53.16082031 51.08994141 -52.32164062 50.24238281 -51.45703125 49.36914062 C-47.04860629 44.94362874 -42.57953792 40.68294958 -37.83984375 36.61499023 C-34.92917922 34.06004784 -32.21484255 31.32235907 -29.5 28.5625 C-28.96375 28.02173828 -28.4275 27.48097656 -27.875 26.92382812 C-26.58095964 25.61823383 -25.29011826 24.30947004 -24 23 Z " fill="#8AD227" transform="translate(808,332)"/>
<path d="M0 0 C3.74020498 1.68152073 5.56134348 3.69039473 8 7 C6.125 6.6875 6.125 6.6875 4 6 C3.34 5.01 2.68 4.02 2 3 C-1.84130598 4.50908449 -3.48803112 6.8029487 -6 10 C-6.763125 10.598125 -7.52625 11.19625 -8.3125 11.8125 C-10.70888886 13.76304908 -12.50662286 15.66070058 -14.5 18 C-17.10604426 21.05654207 -19.73540876 23.62575183 -23 26 C-22.34 27.98 -21.68 29.96 -21 32 C-22.65 30.68 -24.3 29.36 -26 28 C-24.39626852 23.99482604 -21.57886014 21.3228902 -18.5546875 18.359375 C-17.75987473 17.56880707 -17.75987473 17.56880707 -16.94900513 16.76226807 C-15.26232175 15.08674325 -13.56880436 13.41832278 -11.875 11.75 C-10.72740612 10.61244149 -9.58026539 9.47442564 -8.43359375 8.3359375 C-5.62761863 5.55196535 -2.81549536 2.7743424 0 0 Z " fill="#6EAE13" transform="translate(468,495)"/>
<path d="M0 0 C0.33 0.66 0.66 1.32 1 2 C0.34 1.67 -0.32 1.34 -1 1 C-0.67 0.67 -0.34 0.34 0 0 Z M-4 3 C-3.34 3.33 -2.68 3.66 -2 4 C-13.91312444 17.20371292 -13.91312444 17.20371292 -20.2421875 22.5 C-22.99012956 24.84491056 -25.47843875 27.41539972 -28 30 C-28.66 29.67 -29.32 29.34 -30 29 C-21.42 20.42 -12.84 11.84 -4 3 Z " fill="#8AD226" transform="translate(631,503)"/>
<path d="M0 0 C0.33 0.99 0.66 1.98 1 3 C-0.38607623 4.46761013 -1.78431195 5.92374189 -3.1875 7.375 C-3.96480469 8.18710937 -4.74210938 8.99921875 -5.54296875 9.8359375 C-8.02186664 12.01925933 -9.81638329 13.16220613 -13 14 C-15.8125 12.625 -15.8125 12.625 -18 11 C-17.67 10.01 -17.34 9.02 -17 8 C-15.68 8.99 -14.36 9.98 -13 11 C-9.31930113 9.46356148 -7.01224796 7.21849055 -4.25 4.375 C-3.45078125 3.55773437 -2.6515625 2.74046875 -1.828125 1.8984375 C-1.22484375 1.27195312 -0.6215625 0.64546875 0 0 Z " fill="#79C536" transform="translate(566,565)"/>
<path d="M0 0 C0.66 0.33 1.32 0.66 2 1 C-11.95140764 16.61839568 -11.95140764 16.61839568 -17 20 C-17.99 20 -18.98 20 -20 20 C-13.4 13.4 -6.8 6.8 0 0 Z " fill="#8ED328" transform="translate(740,397)"/>
<path d="M0 0 C0.33 0.66 0.66 1.32 1 2 C-2.83286584 5.89061146 -6.78859729 9.62055805 -10.8125 13.3125 C-11.40998047 13.86228516 -12.00746094 14.41207031 -12.62304688 14.97851562 C-14.08114922 16.31996978 -15.5404504 17.66012065 -17 19 C-17.66 18.67 -18.32 18.34 -19 18 C-16.21238985 15.18345426 -13.41924204 12.37246527 -10.625 9.5625 C-9.8309375 8.76005859 -9.036875 7.95761719 -8.21875 7.13085938 C-7.45820312 6.36708984 -6.69765625 5.60332031 -5.9140625 4.81640625 C-4.8614624 3.75595093 -4.8614624 3.75595093 -3.78759766 2.67407227 C-2 1 -2 1 0 0 Z " fill="#8FD224" transform="translate(715,422)"/>
<path d="M0 0 C-1.10026413 3.3007924 -1.82709337 3.92480282 -4.4375 6.0625 C-9.58636904 10.41707889 -14.27849064 15.19141362 -19 20 C-19.66 19.67 -20.32 19.34 -21 19 C-17.88307091 15.82530062 -14.75516454 12.66164608 -11.625 9.5 C-10.73554687 8.59378906 -9.84609375 7.68757812 -8.9296875 6.75390625 C-8.07890625 5.89667969 -7.228125 5.03945313 -6.3515625 4.15625 C-5.17327881 2.96225586 -5.17327881 2.96225586 -3.97119141 1.74414062 C-2 0 -2 0 0 0 Z " fill="#87CE34" transform="translate(600,534)"/>
<path d="M0 0 C0.99 0.33 1.98 0.66 3 1 C-2.13122145 6.25404324 -7.4069024 11.23991693 -13 16 C-13 13 -13 13 -11.80664062 11.46606445 C-11.26201172 10.937146 -10.71738281 10.40822754 -10.15625 9.86328125 C-9.56972656 9.28642578 -8.98320313 8.70957031 -8.37890625 8.11523438 C-7.75886719 7.52033203 -7.13882813 6.92542969 -6.5 6.3125 C-5.87996094 5.70599609 -5.25992188 5.09949219 -4.62109375 4.47460938 C-3.08735293 2.97626257 -1.54451802 1.48723507 0 0 Z " fill="#81CC20" transform="translate(854,288)"/>
<path d="M0 0 C0.66 0.33 1.32 0.66 2 1 C-0.66666667 3.66666667 -3.33333333 6.33333333 -6 9 C-6.66 8.67 -7.32 8.34 -8 8 C-5.36 5.36 -2.72 2.72 0 0 Z " fill="#8FD336" transform="translate(808,332)"/>
</svg>
